<svg xmlns="http://www.w3.org/2000/svg" xmlns:xlink="http://www.w3.org/1999/xlink" width="31.296" height="36.352" viewBox="0 0 31.296 36.352">
  <defs>
    <linearGradient id="linear-gradient" x1="-0.085" y1="0.427" x2="1" y2="0.441" gradientUnits="objectBoundingBox">
      <stop offset="0" stop-color="#170557"/>
      <stop offset="0" stop-color="#00d1ff"/>
      <stop offset="0.911" stop-color="#e12096"/>
      <stop offset="1" stop-color="#bc1f83"/>
    </linearGradient>
  </defs>
  <g id="Group_46798" data-name="Group 46798" transform="translate(-688.234 -404.503)" opacity="0.926">
    <path id="Path_115318" data-name="Path 115318" d="M688.234,406.838c3.716.348,6.78-2.325,10.557-2.335-.313,2.643-1.868,3.881-4.2,4.416-1.555.357-2.771.726-3,2.844-1.075,9.985,1.3,18.326,10.432,24,1.506.935,2.3,1.161,3.578-.081,1.576-1.531,3.339-2.874,5.012-4.309a13.689,13.689,0,0,0,5.182-11.559,55.364,55.364,0,0,1,.022-6.951c.182-2.317-.548-3.667-2.988-4.037-2.285-.346-3.682-1.7-4.115-4.3,3.88.377,7.3,1.917,10.812,3.085v16.24c-2.557,7.058-8.254,11.466-13.757,16.073-1.482,1.241-2.454,1.244-3.942-.009-5.29-4.456-10.774-8.7-13.6-15.291Z" transform="translate(0 0)" fill="url(#linear-gradient)"/>
    <path id="Path_115319" data-name="Path 115319" d="M705.559,413.267,698.5,426.289c-1.938-2.724-2.478-4.9-.891-7.641,2.639-4.551,4.968-9.276,7.444-13.958,5.433,4.845,10.052,16.831,7.953,20.969-2.139-1.491-2.691-3.951-3.916-5.925C707.9,417.815,706.915,415.771,705.559,413.267Z" transform="translate(-1.748 -0.039)" fill="url(#linear-gradient)"/>
    <path id="Path_115320" data-name="Path 115320" d="M706.726,424.023a48.4,48.4,0,0,0,3.019,5.771c2.321,3.216-.052,4.882-2.241,6.035s-3.135-1.529-4.594-2.531c-1.031-.709-.108-1.64.262-2.39C704.2,428.837,705.287,426.8,706.726,424.023Z" transform="translate(-2.939 -4.039)" fill="url(#linear-gradient)"/>
  </g>
</svg>
