<svg xmlns="http://www.w3.org/2000/svg" xmlns:xlink="http://www.w3.org/1999/xlink" width="52.506" height="49.905" viewBox="0 0 52.506 49.905">
  <defs>
    <linearGradient id="linear-gradient" x1="-0.085" y1="0.427" x2="1" y2="0.441" gradientUnits="objectBoundingBox">
      <stop offset="0" stop-color="#170557"/>
      <stop offset="0" stop-color="#00d1ff"/>
      <stop offset="0.911" stop-color="#e12096"/>
      <stop offset="1" stop-color="#bc1f83"/>
    </linearGradient>
    <filter id="Path_115313" x="0" y="0" width="52.506" height="49.905" filterUnits="userSpaceOnUse">
      <feOffset dy="3" input="SourceAlpha"/>
      <feGaussianBlur stdDeviation="3" result="blur"/>
      <feFlood flood-opacity="0.624"/>
      <feComposite operator="in" in2="blur"/>
      <feComposite in="SourceGraphic"/>
    </filter>
  </defs>
  <g transform="matrix(1, 0, 0, 1, 0, 0)" filter="url(#Path_115313)">
    <path id="Path_115313-2" data-name="Path 115313" d="M407.569,325.881c-.148.7-.293,1.4-.444,2.1q-.879,4.065-1.762,8.129a.707.707,0,0,1-.082.267,1.1,1.1,0,0,0-.076,1.08c.661,2.05,1.314,4.1,1.984,6.148a1.511,1.511,0,0,1,.03.943c-.6,2.053-1.192,4.11-1.789,6.166a.892.892,0,0,1-1.214.667c-2-.552-4-1.1-5.991-1.671a1.292,1.292,0,0,0-1.338.267c-1.133.982-2.418,1.761-3.632,2.634a1.231,1.231,0,0,1-.759.222q-2.166-.01-4.332,0a1.337,1.337,0,0,1-.828-.268c-1.229-.9-2.537-1.688-3.688-2.693a1.082,1.082,0,0,0-1.093-.2c-1.98.568-3.966,1.114-5.95,1.67-.815.228-1.169.038-1.408-.781-.6-2.042-1.185-4.085-1.781-6.127a1.165,1.165,0,0,1,.031-.711c.631-1.96,1.25-3.924,1.887-5.883a2.01,2.01,0,0,0,.028-1.583,11.317,11.317,0,0,1-.523-2.152q-.869-3.944-1.737-7.888a1.367,1.367,0,0,1,.032-.752c.413-1.253.818-2.509,1.23-3.762a.918.918,0,0,1,1.372-.667q4.84,1.814,9.678,3.633a2.071,2.071,0,0,0,.749.132q4.11-.006,8.219,0a2.507,2.507,0,0,0,.906-.168q4.8-1.81,9.6-3.611a.911.911,0,0,1,1.333.626c.422,1.292.837,2.587,1.253,3.881C407.512,325.645,407.537,325.763,407.569,325.881Zm-1.156.563c-.029-.093-.054-.184-.085-.272q-.639-1.764-1.281-3.528c-.184-.5-.367-.56-.805-.258q-5.511,3.793-11.02,7.588c-.426.293-.431.481-.023.8,1.24.973,2.487,1.937,3.719,2.92a2.444,2.444,0,0,0,.923.464c1.846.491,3.689.995,5.533,1.493.58.157.627.129.779-.456q1.015-3.927,2.028-7.854Q406.3,326.894,406.413,326.444Zm-29.5,9.293.131-.037q3-.813,6.005-1.623a1.254,1.254,0,0,0,.458-.243q1.94-1.525,3.883-3.048c.425-.334.419-.509-.034-.821q-5.513-3.8-11.028-7.591c-.4-.277-.6-.207-.773.27-.412,1.125-.817,2.252-1.24,3.373a1.223,1.223,0,0,0-.03.785c.3,1.119.583,2.24.871,3.362q.658,2.562,1.316,5.123C376.528,335.506,376.563,335.759,376.911,335.737Zm13.383,13.855c.756,0,1.512-.008,2.267,0,.333.005.476-.119.431-.458-.064-.481-.117-.963-.174-1.444a.967.967,0,0,0-.906-.85q-1.639-.012-3.279,0a.984.984,0,0,0-.922.886c-.037.443-.085.885-.136,1.326-.044.39.063.531.451.534C388.783,349.6,389.538,349.592,390.294,349.592Zm-3.323-7.453c.361.007.568-.27.434-.574-.232-.529-.49-1.047-.747-1.565a.371.371,0,0,0-.515-.185c-.592.255-1.178.525-1.764.8a.412.412,0,0,0-.247.425c.01.212.148.305.327.359.45.136.9.269,1.352.4Zm6.664,0c.826-.251,1.73-.5,2.616-.807a.347.347,0,0,0,0-.657c-.6-.294-1.218-.56-1.83-.833a.362.362,0,0,0-.508.188c-.26.515-.514,1.034-.742,1.563C393.046,341.878,393.253,342.142,393.636,342.139Z" transform="translate(-364.06 -314.93)" opacity="0.926" fill="url(#linear-gradient)"/>
  </g>
</svg>
