<svg xmlns="http://www.w3.org/2000/svg" xmlns:xlink="http://www.w3.org/1999/xlink" width="50.656" height="50.644" viewBox="0 0 50.656 50.644">
  <defs>
    <linearGradient id="linear-gradient" x1="-0.085" y1="0.427" x2="1" y2="0.441" gradientUnits="objectBoundingBox">
      <stop offset="0" stop-color="#170557"/>
      <stop offset="0" stop-color="#00d1ff"/>
      <stop offset="0.911" stop-color="#e12096"/>
      <stop offset="1" stop-color="#bc1f83"/>
    </linearGradient>
    <filter id="Path_115317" x="0" y="0" width="50.656" height="50.644" filterUnits="userSpaceOnUse">
      <feOffset dy="3" input="SourceAlpha"/>
      <feGaussianBlur stdDeviation="3" result="blur"/>
      <feFlood flood-opacity="0.624"/>
      <feComposite operator="in" in2="blur"/>
      <feComposite in="SourceGraphic"/>
    </filter>
  </defs>
  <g transform="matrix(1, 0, 0, 1, 0, 0)" filter="url(#Path_115317)">
    <path id="Path_115317-2" data-name="Path 115317" d="M209.1,215.819A16.322,16.322,0,1,1,192.785,231.8,16.325,16.325,0,0,1,209.1,215.819ZM217.383,233c1.2,0,2.406,0,3.609,0a.782.782,0,0,0,.746-.394.792.792,0,0,0-.785-1.173q-3.532,0-7.064,0c-.268,0-.388-.043-.458-.349a4.6,4.6,0,1,0-.051,2.253.4.4,0,0,1,.471-.35C215.028,233.011,216.206,233,217.383,233Z" transform="translate(-183.78 -209.82)" opacity="0.926" fill="url(#linear-gradient)"/>
  </g>
</svg>
