<svg xmlns="http://www.w3.org/2000/svg" xmlns:xlink="http://www.w3.org/1999/xlink" width="51.002" height="51.001" viewBox="0 0 51.002 51.001">
  <defs>
    <linearGradient id="linear-gradient" x1="-0.085" y1="0.427" x2="1" y2="0.441" gradientUnits="objectBoundingBox">
      <stop offset="0" stop-color="#170557"/>
      <stop offset="0" stop-color="#00d1ff"/>
      <stop offset="0.911" stop-color="#e12096"/>
      <stop offset="1" stop-color="#bc1f83"/>
    </linearGradient>
    <filter id="Subtraction_5" x="0" y="0" width="51.002" height="51.001" filterUnits="userSpaceOnUse">
      <feOffset dy="3" input="SourceAlpha"/>
      <feGaussianBlur stdDeviation="3" result="blur"/>
      <feFlood flood-opacity="0.624"/>
      <feComposite operator="in" in2="blur"/>
      <feComposite in="SourceGraphic"/>
    </filter>
  </defs>
  <g transform="matrix(1, 0, 0, 1, 0, 0)" filter="url(#Subtraction_5)">
    <path id="Subtraction_5-2" data-name="Subtraction 5" d="M-12270.5,61a16.4,16.4,0,0,1-11.668-4.833A16.4,16.4,0,0,1-12287,44.5a16.4,16.4,0,0,1,4.833-11.667A16.4,16.4,0,0,1-12270.5,28a16.4,16.4,0,0,1,11.668,4.833A16.4,16.4,0,0,1-12254,44.5a16.4,16.4,0,0,1-4.833,11.667A16.4,16.4,0,0,1-12270.5,61Zm1.852-18.773a.3.3,0,0,0-.221.07.473.473,0,0,0-.089.339c.03,1.647.03,3.389,0,5.039a.332.332,0,0,0,.081.251.365.365,0,0,0,.264.091.738.738,0,0,0,.194-.028.885.885,0,0,0,.2.022.441.441,0,0,0,.32-.111.4.4,0,0,0,.092-.3c-.025-.585-.02-1.176-.014-1.746l0-.178c0-.191,0-.385,0-.577s0-.376,0-.562l0-.174c-.006-.559-.012-1.137.014-1.71a.462.462,0,0,0-.083-.346.332.332,0,0,0-.259-.082c-.06,0-.126.006-.185.01h-.062c-.041,0-.081,0-.126,0S-12268.611,42.228-12268.648,42.228Zm-4.981-.016c-.424,0-.759.015-.762.015s-.53.08-.524.5c.03,1.688.03,3.253,0,4.783-.006.428.14.478.524.5.043,0,.082,0,.12,0a.561.561,0,0,0,.456-.146.609.609,0,0,0,.065-.511.878.878,0,0,1-.007-.221c0-.035,0-.069,0-.1v-.008a1.716,1.716,0,0,1,.045-.568c.043-.1.126-.13.317-.13.089,0,.2.007.336.015l.054,0a.486.486,0,0,1,.417.3c.019.031.036.058.055.085.23.325.461.662.7,1.03a.416.416,0,0,0,.364.238h.024c.12,0,.251-.006.413-.006l.314,0,.386,0-.186-.272-.04-.058,0-.007c-.3-.434-.576-.844-.862-1.239a.4.4,0,0,1-.114-.283c.014-.073.074-.141.194-.22a1.856,1.856,0,0,0,.756-2.155,1.861,1.861,0,0,0-1.588-1.449A8.478,8.478,0,0,0-12273.63,42.212Zm-4.944.029a3.292,3.292,0,0,0-1.617.434,2.676,2.676,0,0,0-1.4,2.633,2.856,2.856,0,0,0,3,2.7,3.82,3.82,0,0,0,.736-.074c1.239-.241,1.382-.411,1.382-1.65V45.4c0-.125,0-.223-.176-.265a1.662,1.662,0,0,0-.38-.054c-.354,0-.5.207-.5.714,0,.084,0,.168,0,.253v.125c0,.127,0,.256,0,.384a.3.3,0,0,1-.167.3,1.511,1.511,0,0,1-.731.175,2.119,2.119,0,0,1-1.868-1.119,1.91,1.91,0,0,1-.021-1.535,1.744,1.744,0,0,1,1.042-.965,2.4,2.4,0,0,1,.778-.133,2.468,2.468,0,0,1,1.071.253.461.461,0,0,0,.2.05c.29,0,.358-.395.369-.474a.457.457,0,0,0,.089-.315.233.233,0,0,0-.138-.152A3.9,3.9,0,0,0-12278.574,42.241Zm13.136,5.752c.174,0,.349,0,.522,0h.481c.313,0,.686,0,1.061-.037a2.476,2.476,0,0,0,2.394-2.424.436.436,0,0,0-.187-.366,1.469,1.469,0,0,0-.416-.068c-.207,0-.459.066-.488.379a1.443,1.443,0,0,1-1.339,1.459,2.8,2.8,0,0,1-.59.05h-.3c-.1,0-.2,0-.3.01l-.068,0a.3.3,0,0,1-.219-.069.42.42,0,0,1-.077-.31l0-.321v-.027c.012-.779.024-1.584-.015-2.372a.772.772,0,0,1,.121-.574.4.4,0,0,1,.3-.106,1.173,1.173,0,0,1,.215.023.744.744,0,0,0,.142.015.268.268,0,0,0,.209-.076.525.525,0,0,0,.072-.405c0-.042,0-.086,0-.128v-.025a.449.449,0,0,0-.071-.329.33.33,0,0,0-.245-.076q-.04,0-.085,0c-.193.018-.4.026-.639.026-.26,0-.522-.01-.776-.02h-.046a.331.331,0,0,0-.249.075.391.391,0,0,0-.075.3c.011.531.01,1.074.008,1.6V44.4q0,.348,0,.7v2.534c0,.011,0,.022,0,.033a.357.357,0,0,0,.055.265.276.276,0,0,0,.205.063h.019C-12265.7,47.994-12265.579,47.993-12265.438,47.993Zm2.921-4.779c.236,0,.379.015.459.1.1.1.1.312.088.7a.512.512,0,0,0,.091.386.521.521,0,0,0,.384.107h.031a.5.5,0,0,0,.377-.105.552.552,0,0,0,.095-.419c-.014-.377-.017-.579.081-.68a.548.548,0,0,1,.394-.091c.075,0,.162,0,.277.007h.075c.209,0,.33-.036.393-.116a.444.444,0,0,0,.023-.381.41.41,0,0,0-.022-.356.507.507,0,0,0-.4-.113h-.049l-.209,0c-.258,0-.4-.015-.483-.1-.095-.1-.092-.291-.078-.651a.574.574,0,0,0-.094-.424.541.541,0,0,0-.4-.109.539.539,0,0,0-.423.123.5.5,0,0,0-.059.411.725.725,0,0,1,0,.166v.012a.808.808,0,0,0,0,.146.447.447,0,0,1-.057.358.29.29,0,0,1-.232.084.82.82,0,0,1-.118-.01l-.361,0-.019,0a.976.976,0,0,0-.154-.014c-.291,0-.352.193-.357.526a.479.479,0,0,0,.092.357.474.474,0,0,0,.354.091h.069Zm-10.6,2.2a1.185,1.185,0,0,1-.5-.1c-.131-.06-.221-.359-.24-.8-.024-.533.065-1.15.259-1.261a.737.737,0,0,1,.37-.074,2.018,2.018,0,0,1,1.3.459,1.03,1.03,0,0,1,.114,1.172.916.916,0,0,1-.435.4.339.339,0,0,1-.047.025A2.2,2.2,0,0,1-12273.121,45.41Z" transform="translate(12296 -22)" opacity="0.926" fill="url(#linear-gradient)"/>
  </g>
</svg>
