<svg id="Group_46821" data-name="Group 46821" xmlns="http://www.w3.org/2000/svg" xmlns:xlink="http://www.w3.org/1999/xlink" width="84" height="84" viewBox="0 0 84 84">
  <defs>
    <linearGradient id="linear-gradient" x1="-0.085" y1="0.427" x2="1" y2="0.441" gradientUnits="objectBoundingBox">
      <stop offset="0" stop-color="#170557"/>
      <stop offset="0" stop-color="#2e639a"/>
      <stop offset="1" stop-color="#86285f"/>
      <stop offset="1" stop-color="#00d1ff"/>
    </linearGradient>
  </defs>
  <g id="sUSD">
    <g id="Group_26464" data-name="Group 26464">
      <circle id="Ellipse_3160" data-name="Ellipse 3160" cx="42" cy="42" r="42" opacity="0.914" fill="url(#linear-gradient)"/>
      <circle id="Ellipse_3161" data-name="Ellipse 3161" cx="34.848" cy="34.848" r="34.848" transform="translate(7.152 7.152)" fill="#fff"/>
    </g>
    <ellipse id="Ellipse_3162" data-name="Ellipse 3162" cx="29.841" cy="30.557" rx="29.841" ry="30.557" transform="translate(11.443 11.443)" fill="#0e052f"/>
  </g>
  <g id="Group_29477" data-name="Group 29477" transform="translate(22.821 32.134)">
    <path id="Path_69209" data-name="Path 69209" d="M-494.949-2243.04a14.907,14.907,0,0,1-1.961,7.154,10.621,10.621,0,0,1-5.592,4.792,10.883,10.883,0,0,1-4.009.644,8.922,8.922,0,0,1-3.971-.924,7.148,7.148,0,0,1-3.38-3.717,9.612,9.612,0,0,1-.73-3.241,14.78,14.78,0,0,1,1.81-8.068,10.916,10.916,0,0,1,4.254-4.37,10.661,10.661,0,0,1,5.616-1.327,8.69,8.69,0,0,1,4.085,1.054,7.222,7.222,0,0,1,3.236,3.881A11.153,11.153,0,0,1-494.949-2243.04Zm-4.731-.649a7.3,7.3,0,0,0-.326-2.521,3.157,3.157,0,0,0-2.437-2.217,5.364,5.364,0,0,0-2.881.2,5.376,5.376,0,0,0-2.693,2.169,9.9,9.9,0,0,0-1.365,3.189,18.417,18.417,0,0,0-.515,4.2,6.639,6.639,0,0,0,.341,2.35,3.2,3.2,0,0,0,2.056,2.125,3.843,3.843,0,0,0,.845.175,5.068,5.068,0,0,0,4.106-1.293,7.435,7.435,0,0,0,1.892-2.93A18.021,18.021,0,0,0-499.68-2243.689Z" transform="translate(514.616 2252.102)" fill="#fffdfc"/>
    <path id="Path_69210" data-name="Path 69210" d="M-157.324-2230.464c.069-.382.137-.771.208-1.161q.588-3.211,1.177-6.421.578-3.153,1.156-6.3.554-3.02,1.108-6.041c.088-.479.172-.958.262-1.436.046-.244.05-.246.3-.246l4.985.009c.985,0,1.97,0,2.955.006a9.319,9.319,0,0,1,3.721.719,6.162,6.162,0,0,1,3.266,3.08,6.267,6.267,0,0,1,.5,3.176,6.99,6.99,0,0,1-.869,2.981,7.463,7.463,0,0,1-3.072,2.877,10.211,10.211,0,0,1-3.631,1.092,22.9,22.9,0,0,1-2.861.1q-1.448,0-2.9-.014c-.04,0-.08,0-.119,0-.143-.014-.205.035-.231.19-.1.617-.226,1.231-.34,1.847q-.491,2.653-.98,5.306c-.052.28-.055.28-.334.28q-2.015,0-4.03,0A.42.42,0,0,1-157.324-2230.464Zm6.649-11.223a1.062,1.062,0,0,0,.333.023l3.223.029a7.347,7.347,0,0,0,1.66-.147,3.88,3.88,0,0,0,3.188-4.145,2.545,2.545,0,0,0-1.86-2.368,4.074,4.074,0,0,0-1.149-.154l-3.88-.017c-.264,0-.265,0-.317.267-.008.04-.011.079-.018.118q-.284,1.54-.569,3.078Q-150.37-2243.348-150.675-2241.687Z" transform="translate(178.679 2252.075)" fill="#fffdfc"/>
  </g>
</svg>
