<svg id="Group_39684" data-name="Group 39684" xmlns="http://www.w3.org/2000/svg" width="23.253" height="37.329" viewBox="0 0 23.253 37.329">
  <path id="Path_52399" data-name="Path 52399" d="M239.786,325.617a1.133,1.133,0,0,1-.762-.231q-5.163-2.958-10.324-5.921c-.768-.441-.85-.75-.384-1.485q5.265-8.3,10.541-16.6c.529-.832,1.061-.839,1.586-.014q5.3,8.325,10.584,16.661c.415.654.335,1.011-.332,1.4q-5.224,3.009-10.459,6A3.628,3.628,0,0,1,239.786,325.617Z" transform="translate(-228.028 -300.751)" fill="snow"/>
  <path id="Path_52400" data-name="Path 52400" d="M252.342,438.427a1.138,1.138,0,0,1-.3.74q-5.212,7.023-10.428,14.045c-.563.757-1.006.76-1.562.012q-5.22-7.018-10.43-14.044c-.276-.371-.49-.748-.127-1.165.388-.446.8-.274,1.236-.028,3.169,1.8,6.348,3.589,9.509,5.4a1,1,0,0,0,1.167.014c3.157-1.824,6.335-3.61,9.508-5.4.676-.382,1.134-.313,1.363.191A1.377,1.377,0,0,1,252.342,438.427Z" transform="translate(-229.101 -416.454)" fill="#fff"/>
  <path id="Path_52401" data-name="Path 52401" d="M246.912,336.8l7.782-12.256c.256.1.132.309.133.456.009,2.661,0,5.323.012,7.985,0,.352-.013.612-.418.781-2.371.99-4.729,2.011-7.09,3.025A.414.414,0,0,1,246.912,336.8Z" transform="translate(-243.984 -320.851)"/>
  <path id="Path_52402" data-name="Path 52402" d="M315.859,335.611c-.2.134-.33.019-.47-.04q-3.51-1.5-7.021-3c-.232-.1-.441-.171-.439-.525.018-2.886.01-5.772.01-8.9Z" transform="translate(-295.54 -319.666)"/>
  <path id="Path_52403" data-name="Path 52403" d="M308.248,393.577l8.3,3.565-8.3,4.755Z" transform="translate(-295.809 -379.154)"/>
  <path id="Path_52404" data-name="Path 52404" d="M252.6,401.932,244.3,397.18l8.294-3.559Z" transform="translate(-241.779 -379.191)"/>
  <path id="Path_52405" data-name="Path 52405" d="M259.3,467.938l-7.1-9.658c.249-.1.387.092.546.182,2.011,1.144,4.011,2.305,6.029,3.436a.876.876,0,0,1,.54.895C259.283,464.434,259.3,466.078,259.3,467.938Z" transform="translate(-248.453 -433.778)"/>
  <path id="Path_52406" data-name="Path 52406" d="M307.979,468.5c0-1.912,0-3.592,0-5.271a.6.6,0,0,1,.306-.634c2.155-1.214,4.3-2.451,6.446-3.677.036-.021.1,0,.279.017Z" transform="translate(-295.579 -434.331)"/>
</svg>
