<svg xmlns="http://www.w3.org/2000/svg" width="18.565" height="18.652" viewBox="0 0 18.565 18.652">
  <path id="Path_115332" data-name="Path 115332" d="M0,8.549H2.375a4.693,4.693,0,0,0-.043.777,4.693,4.693,0,0,0,.043.777H.691L0,11.657H2.634a9.5,9.5,0,0,0,9.024,6.994,9.272,9.272,0,0,0,6.217-2.439V13.967a7.751,7.751,0,0,1-13.622-2.31H14.766l.691-1.554H3.929a4.693,4.693,0,0,1-.043-.777,4.958,4.958,0,0,1,.043-.777H16.148l.691-1.554H4.253a7.783,7.783,0,0,1,7.4-5.44,7.545,7.545,0,0,1,6.217,3.109l.691-1.533A9.281,9.281,0,0,0,11.657,0,9.511,9.511,0,0,0,2.634,6.994H.691Z" fill="#fff"/>
</svg>
