<svg xmlns="http://www.w3.org/2000/svg" width="209.1" height="28.946" viewBox="0 0 209.1 28.946">
  <path id="teleportr_logo" data-name="teleportr logo" d="M16.769-23.739H10.988V0h-5V-23.739H.246v-5.207H16.769Zm22.673,0H27.511a1.669,1.669,0,0,0-1.292.635,2.7,2.7,0,0,0-.553,1.825v4.1H39.4v5.207H25.666v4.838a1.5,1.5,0,0,0,.9,1.558,8,8,0,0,0,2.829.369h9.922V0H28.331a7.562,7.562,0,0,1-5.719-2.071,8.277,8.277,0,0,1-1.989-5.966V-21.4q0-3.813,2.05-5.678t6.4-1.865H39.442ZM63.3,0H52.6a7.72,7.72,0,0,1-5.638-1.947,7.483,7.483,0,0,1-1.988-5.6v-21.4H50.02V-7.585a2.444,2.444,0,0,0,.574,1.845,2.875,2.875,0,0,0,1.968.533H63.3ZM85.977-23.739H74.046a1.669,1.669,0,0,0-1.291.635,2.7,2.7,0,0,0-.554,1.825v4.1H85.936v5.207H72.2v4.838a1.5,1.5,0,0,0,.9,1.558,8,8,0,0,0,2.829.369h9.922V0H74.866a7.562,7.562,0,0,1-5.719-2.071,8.277,8.277,0,0,1-1.989-5.966V-21.4q0-3.813,2.05-5.678t6.4-1.865H85.977Zm26.035,5.986a7.45,7.45,0,0,1-2.05,5.576,7.911,7.911,0,0,1-5.781,2.009H96.6V0H91.512V-28.946h12.3q4.141,0,6.17,1.845a6.945,6.945,0,0,1,2.03,5.412Zm-5.125-.164v-3.567a2.362,2.362,0,0,0-.533-1.722,3.087,3.087,0,0,0-2.132-.533H96.6v8.364h7.544a2.966,2.966,0,0,0,2.132-.615A2.631,2.631,0,0,0,106.887-17.917Zm30.381,9.553q0,4.387-2.071,6.376T128.453,0H125.5q-4.674,0-6.744-1.989t-2.071-6.376V-20.582q0-4.387,2.071-6.376t6.744-1.988h2.952q4.674,0,6.744,1.988t2.071,6.376Zm-5.125.246V-20.746a3.2,3.2,0,0,0-.677-2.358,3.429,3.429,0,0,0-2.357-.635h-4.223a3.6,3.6,0,0,0-2.4.635,3.074,3.074,0,0,0-.717,2.358V-8.2a3.074,3.074,0,0,0,.717,2.358,3.6,3.6,0,0,0,2.4.635h4.223a3.744,3.744,0,0,0,2.48-.553A3.489,3.489,0,0,0,132.143-8.118ZM165.107,0H158.67l-9.8-12.054a2.381,2.381,0,0,1-.492-1.6,3.529,3.529,0,0,1,.84-2.3,3.121,3.121,0,0,1,2.563-1.025h5.7a1.9,1.9,0,0,0,1.374-.492,1.635,1.635,0,0,0,.512-1.23V-21.73a2.46,2.46,0,0,0-.389-1.476,1.593,1.593,0,0,0-1.374-.533h-9.717V0h-4.92V-28.946h15.252a5.694,5.694,0,0,1,4.592,2.05,6.575,6.575,0,0,1,1.517,4.305v4.8a5.794,5.794,0,0,1-1.783,4.161,5.279,5.279,0,0,1-3.792,1.825h-3.28Zm18.655-23.739h-5.781V0h-5V-23.739h-5.74v-5.207h16.523ZM209.346,0h-6.437l-9.8-12.054a2.381,2.381,0,0,1-.492-1.6,3.529,3.529,0,0,1,.84-2.3,3.121,3.121,0,0,1,2.563-1.025h5.7a1.9,1.9,0,0,0,1.374-.492,1.635,1.635,0,0,0,.512-1.23V-21.73a2.46,2.46,0,0,0-.389-1.476,1.593,1.593,0,0,0-1.374-.533h-9.717V0h-4.92V-28.946h15.252a5.694,5.694,0,0,1,4.592,2.05,6.575,6.575,0,0,1,1.517,4.305v4.8a5.794,5.794,0,0,1-1.783,4.161,5.279,5.279,0,0,1-3.793,1.825h-3.28Z" transform="translate(-0.246 28.946)" fill="#fff"/>
</svg>
